<mxfile host="65bd71144e">
    <diagram id="E_eP5N2rTYQmSoz9FkU3" name="PÃ¡gina-1">
        <mxGraphModel dx="1640" dy="506" grid="1" gridSize="10" guides="1" tooltips="1" connect="1" arrows="1" fold="1" page="1" pageScale="1" pageWidth="827" pageHeight="1169" math="0" shadow="0">
            <root>
                <mxCell id="0"/>
                <mxCell id="1" parent="0"/>
                <mxCell id="48" style="edgeStyle=none;shape=connector;rounded=1;html=1;exitX=0.5;exitY=1;exitDx=0;exitDy=0;entryX=0.5;entryY=0;entryDx=0;entryDy=0;strokeColor=default;align=center;verticalAlign=middle;fontFamily=Helvetica;fontSize=11;fontColor=default;labelBackgroundColor=default;startArrow=none;startFill=0;endArrow=none;endFill=0;" edge="1" parent="1" source="2" target="47">
                    <mxGeometry relative="1" as="geometry"/>
                </mxCell>
                <mxCell id="60" value="1" style="edgeLabel;html=1;align=center;verticalAlign=middle;resizable=0;points=[];fontFamily=Helvetica;fontSize=11;fontColor=default;labelBackgroundColor=default;" vertex="1" connectable="0" parent="48">
                    <mxGeometry x="-0.2667" y="5" relative="1" as="geometry">
                        <mxPoint as="offset"/>
                    </mxGeometry>
                </mxCell>
                <mxCell id="54" style="edgeStyle=none;shape=connector;rounded=1;html=1;exitX=0;exitY=0.5;exitDx=0;exitDy=0;entryX=1;entryY=0.5;entryDx=0;entryDy=0;strokeColor=default;align=center;verticalAlign=middle;fontFamily=Helvetica;fontSize=11;fontColor=default;labelBackgroundColor=default;startArrow=none;startFill=0;endArrow=none;endFill=0;" edge="1" parent="1" source="2" target="53">
                    <mxGeometry relative="1" as="geometry"/>
                </mxCell>
                <mxCell id="61" value="M" style="edgeLabel;html=1;align=center;verticalAlign=middle;resizable=0;points=[];fontFamily=Helvetica;fontSize=11;fontColor=default;labelBackgroundColor=default;" vertex="1" connectable="0" parent="54">
                    <mxGeometry x="-0.5132" y="1" relative="1" as="geometry">
                        <mxPoint as="offset"/>
                    </mxGeometry>
                </mxCell>
                <mxCell id="2" value="Evento" style="rounded=1;whiteSpace=wrap;html=1;" vertex="1" parent="1">
                    <mxGeometry x="540" y="180" width="120" height="60" as="geometry"/>
                </mxCell>
                <mxCell id="55" style="edgeStyle=none;shape=connector;rounded=1;html=1;exitX=1;exitY=0.5;exitDx=0;exitDy=0;entryX=0;entryY=0.5;entryDx=0;entryDy=0;strokeColor=default;align=center;verticalAlign=middle;fontFamily=Helvetica;fontSize=11;fontColor=default;labelBackgroundColor=default;startArrow=none;startFill=0;endArrow=none;endFill=0;" edge="1" parent="1" source="3" target="53">
                    <mxGeometry relative="1" as="geometry"/>
                </mxCell>
                <mxCell id="62" value="N" style="edgeLabel;html=1;align=center;verticalAlign=middle;resizable=0;points=[];fontFamily=Helvetica;fontSize=11;fontColor=default;labelBackgroundColor=default;" vertex="1" connectable="0" parent="55">
                    <mxGeometry x="-0.3197" relative="1" as="geometry">
                        <mxPoint as="offset"/>
                    </mxGeometry>
                </mxCell>
                <mxCell id="3" value="Participante" style="rounded=1;whiteSpace=wrap;html=1;" vertex="1" parent="1">
                    <mxGeometry x="100" y="180" width="120" height="60" as="geometry"/>
                </mxCell>
                <mxCell id="49" style="edgeStyle=none;shape=connector;rounded=1;html=1;exitX=0.5;exitY=0;exitDx=0;exitDy=0;entryX=0.5;entryY=1;entryDx=0;entryDy=0;strokeColor=default;align=center;verticalAlign=middle;fontFamily=Helvetica;fontSize=11;fontColor=default;labelBackgroundColor=default;startArrow=none;startFill=0;endArrow=none;endFill=0;" edge="1" parent="1" source="4" target="47">
                    <mxGeometry relative="1" as="geometry">
                        <mxPoint x="595" y="500" as="targetPoint"/>
                    </mxGeometry>
                </mxCell>
                <mxCell id="59" value="N" style="edgeLabel;html=1;align=center;verticalAlign=middle;resizable=0;points=[];fontFamily=Helvetica;fontSize=11;fontColor=default;labelBackgroundColor=default;" vertex="1" connectable="0" parent="49">
                    <mxGeometry x="0.0556" y="-3" relative="1" as="geometry">
                        <mxPoint as="offset"/>
                    </mxGeometry>
                </mxCell>
                <mxCell id="51" style="edgeStyle=none;shape=connector;rounded=1;html=1;exitX=0;exitY=0.5;exitDx=0;exitDy=0;entryX=1;entryY=0.5;entryDx=0;entryDy=0;strokeColor=default;align=center;verticalAlign=middle;fontFamily=Helvetica;fontSize=11;fontColor=default;labelBackgroundColor=default;startArrow=none;startFill=0;endArrow=none;endFill=0;" edge="1" parent="1" source="4" target="50">
                    <mxGeometry relative="1" as="geometry"/>
                </mxCell>
                <mxCell id="58" value="1" style="edgeLabel;html=1;align=center;verticalAlign=middle;resizable=0;points=[];fontFamily=Helvetica;fontSize=11;fontColor=default;labelBackgroundColor=default;" vertex="1" connectable="0" parent="51">
                    <mxGeometry x="-0.3651" relative="1" as="geometry">
                        <mxPoint as="offset"/>
                    </mxGeometry>
                </mxCell>
                <mxCell id="4" value="Inscricao" style="rounded=1;whiteSpace=wrap;html=1;" vertex="1" parent="1">
                    <mxGeometry x="540" y="590" width="120" height="60" as="geometry"/>
                </mxCell>
                <mxCell id="5" value="Pagamento" style="rounded=1;whiteSpace=wrap;html=1;" vertex="1" parent="1">
                    <mxGeometry x="25" y="590" width="120" height="60" as="geometry"/>
                </mxCell>
                <mxCell id="28" style="edgeStyle=none;html=1;exitX=1;exitY=0.5;exitDx=0;exitDy=0;startArrow=none;startFill=0;endArrow=none;endFill=0;" edge="1" parent="1" source="7" target="3">
                    <mxGeometry relative="1" as="geometry"/>
                </mxCell>
                <mxCell id="7" value="ID" style="ellipse;whiteSpace=wrap;html=1;" vertex="1" parent="1">
                    <mxGeometry y="185" width="80" height="50" as="geometry"/>
                </mxCell>
                <mxCell id="30" style="edgeStyle=none;shape=connector;rounded=1;html=1;exitX=0.5;exitY=1;exitDx=0;exitDy=0;entryX=0.75;entryY=0;entryDx=0;entryDy=0;strokeColor=default;align=center;verticalAlign=middle;fontFamily=Helvetica;fontSize=11;fontColor=default;labelBackgroundColor=default;startArrow=none;startFill=0;endArrow=none;endFill=0;" edge="1" parent="1" source="8" target="3">
                    <mxGeometry relative="1" as="geometry"/>
                </mxCell>
                <mxCell id="8" value="Nome" style="ellipse;whiteSpace=wrap;html=1;" vertex="1" parent="1">
                    <mxGeometry x="180" y="100" width="80" height="50" as="geometry"/>
                </mxCell>
                <mxCell id="29" style="edgeStyle=none;shape=connector;rounded=1;html=1;exitX=0.5;exitY=1;exitDx=0;exitDy=0;entryX=0.25;entryY=0;entryDx=0;entryDy=0;strokeColor=default;align=center;verticalAlign=middle;fontFamily=Helvetica;fontSize=11;fontColor=default;labelBackgroundColor=default;startArrow=none;startFill=0;endArrow=none;endFill=0;" edge="1" parent="1" source="9" target="3">
                    <mxGeometry relative="1" as="geometry"/>
                </mxCell>
                <mxCell id="9" value="Email" style="ellipse;whiteSpace=wrap;html=1;" vertex="1" parent="1">
                    <mxGeometry x="70" y="100" width="80" height="50" as="geometry"/>
                </mxCell>
                <mxCell id="31" style="edgeStyle=none;shape=connector;rounded=1;html=1;entryX=0.5;entryY=1;entryDx=0;entryDy=0;strokeColor=default;align=center;verticalAlign=middle;fontFamily=Helvetica;fontSize=11;fontColor=default;labelBackgroundColor=default;startArrow=none;startFill=0;endArrow=none;endFill=0;" edge="1" parent="1" source="10" target="3">
                    <mxGeometry relative="1" as="geometry"/>
                </mxCell>
                <mxCell id="10" value="Telefone" style="ellipse;whiteSpace=wrap;html=1;" vertex="1" parent="1">
                    <mxGeometry x="120" y="290" width="80" height="50" as="geometry"/>
                </mxCell>
                <mxCell id="36" style="edgeStyle=none;shape=connector;rounded=1;html=1;exitX=0.5;exitY=0;exitDx=0;exitDy=0;entryX=0.75;entryY=1;entryDx=0;entryDy=0;strokeColor=default;align=center;verticalAlign=middle;fontFamily=Helvetica;fontSize=11;fontColor=default;labelBackgroundColor=default;startArrow=none;startFill=0;endArrow=none;endFill=0;" edge="1" parent="1" source="11" target="2">
                    <mxGeometry relative="1" as="geometry"/>
                </mxCell>
                <mxCell id="11" value="ID" style="ellipse;whiteSpace=wrap;html=1;" vertex="1" parent="1">
                    <mxGeometry x="660" y="270" width="80" height="50" as="geometry"/>
                </mxCell>
                <mxCell id="33" style="edgeStyle=none;shape=connector;rounded=1;html=1;exitX=0.5;exitY=1;exitDx=0;exitDy=0;entryX=0.25;entryY=0;entryDx=0;entryDy=0;strokeColor=default;align=center;verticalAlign=middle;fontFamily=Helvetica;fontSize=11;fontColor=default;labelBackgroundColor=default;startArrow=none;startFill=0;endArrow=none;endFill=0;" edge="1" parent="1" source="12" target="2">
                    <mxGeometry relative="1" as="geometry"/>
                </mxCell>
                <mxCell id="12" value="Nome" style="ellipse;whiteSpace=wrap;html=1;" vertex="1" parent="1">
                    <mxGeometry x="510" y="110" width="80" height="50" as="geometry"/>
                </mxCell>
                <mxCell id="32" style="edgeStyle=none;shape=connector;rounded=1;html=1;exitX=0.5;exitY=0;exitDx=0;exitDy=0;strokeColor=default;align=center;verticalAlign=middle;fontFamily=Helvetica;fontSize=11;fontColor=default;labelBackgroundColor=default;startArrow=none;startFill=0;endArrow=none;endFill=0;" edge="1" parent="1" source="13">
                    <mxGeometry relative="1" as="geometry">
                        <mxPoint x="540" y="240" as="targetPoint"/>
                    </mxGeometry>
                </mxCell>
                <mxCell id="13" value="Descricao" style="ellipse;whiteSpace=wrap;html=1;" vertex="1" parent="1">
                    <mxGeometry x="450" y="260" width="80" height="50" as="geometry"/>
                </mxCell>
                <mxCell id="34" style="edgeStyle=none;shape=connector;rounded=1;html=1;exitX=0.5;exitY=1;exitDx=0;exitDy=0;entryX=0.75;entryY=0;entryDx=0;entryDy=0;strokeColor=default;align=center;verticalAlign=middle;fontFamily=Helvetica;fontSize=11;fontColor=default;labelBackgroundColor=default;startArrow=none;startFill=0;endArrow=none;endFill=0;" edge="1" parent="1" source="14" target="2">
                    <mxGeometry relative="1" as="geometry"/>
                </mxCell>
                <mxCell id="14" value="Local" style="ellipse;whiteSpace=wrap;html=1;" vertex="1" parent="1">
                    <mxGeometry x="610" y="110" width="80" height="50" as="geometry"/>
                </mxCell>
                <mxCell id="35" style="edgeStyle=none;shape=connector;rounded=1;html=1;exitX=0;exitY=0.5;exitDx=0;exitDy=0;entryX=1;entryY=0.5;entryDx=0;entryDy=0;strokeColor=default;align=center;verticalAlign=middle;fontFamily=Helvetica;fontSize=11;fontColor=default;labelBackgroundColor=default;startArrow=none;startFill=0;endArrow=none;endFill=0;" edge="1" parent="1" source="15" target="2">
                    <mxGeometry relative="1" as="geometry"/>
                </mxCell>
                <mxCell id="15" value="Data" style="ellipse;whiteSpace=wrap;html=1;" vertex="1" parent="1">
                    <mxGeometry x="690" y="185" width="80" height="50" as="geometry"/>
                </mxCell>
                <mxCell id="43" style="edgeStyle=none;shape=connector;rounded=1;html=1;exitX=0.5;exitY=1;exitDx=0;exitDy=0;entryX=0.25;entryY=0;entryDx=0;entryDy=0;strokeColor=default;align=center;verticalAlign=middle;fontFamily=Helvetica;fontSize=11;fontColor=default;labelBackgroundColor=default;startArrow=none;startFill=0;endArrow=none;endFill=0;" edge="1" parent="1" source="16" target="5">
                    <mxGeometry relative="1" as="geometry"/>
                </mxCell>
                <mxCell id="16" value="ID" style="ellipse;whiteSpace=wrap;html=1;" vertex="1" parent="1">
                    <mxGeometry x="-5" y="510" width="80" height="50" as="geometry"/>
                </mxCell>
                <mxCell id="44" style="edgeStyle=none;shape=connector;rounded=1;html=1;exitX=0.5;exitY=1;exitDx=0;exitDy=0;entryX=0.75;entryY=0;entryDx=0;entryDy=0;strokeColor=default;align=center;verticalAlign=middle;fontFamily=Helvetica;fontSize=11;fontColor=default;labelBackgroundColor=default;startArrow=none;startFill=0;endArrow=none;endFill=0;" edge="1" parent="1" source="17" target="5">
                    <mxGeometry relative="1" as="geometry"/>
                </mxCell>
                <mxCell id="17" value="id_descricao" style="ellipse;whiteSpace=wrap;html=1;" vertex="1" parent="1">
                    <mxGeometry x="105" y="510" width="80" height="50" as="geometry"/>
                </mxCell>
                <mxCell id="42" style="edgeStyle=none;shape=connector;rounded=1;html=1;entryX=0;entryY=0.5;entryDx=0;entryDy=0;strokeColor=default;align=center;verticalAlign=middle;fontFamily=Helvetica;fontSize=11;fontColor=default;labelBackgroundColor=default;startArrow=none;startFill=0;endArrow=none;endFill=0;" edge="1" parent="1" source="18" target="5">
                    <mxGeometry relative="1" as="geometry"/>
                </mxCell>
                <mxCell id="18" value="Valor" style="ellipse;whiteSpace=wrap;html=1;" vertex="1" parent="1">
                    <mxGeometry x="-90" y="630" width="80" height="50" as="geometry"/>
                </mxCell>
                <mxCell id="46" style="edgeStyle=none;shape=connector;rounded=1;html=1;entryX=0.5;entryY=1;entryDx=0;entryDy=0;strokeColor=default;align=center;verticalAlign=middle;fontFamily=Helvetica;fontSize=11;fontColor=default;labelBackgroundColor=default;startArrow=none;startFill=0;endArrow=none;endFill=0;" edge="1" parent="1" source="19" target="5">
                    <mxGeometry relative="1" as="geometry"/>
                </mxCell>
                <mxCell id="19" value="data_pagamento" style="ellipse;whiteSpace=wrap;html=1;" vertex="1" parent="1">
                    <mxGeometry x="35" y="710" width="100" height="50" as="geometry"/>
                </mxCell>
                <mxCell id="45" style="edgeStyle=none;shape=connector;rounded=1;html=1;exitX=0.5;exitY=0;exitDx=0;exitDy=0;entryX=1;entryY=1;entryDx=0;entryDy=0;strokeColor=default;align=center;verticalAlign=middle;fontFamily=Helvetica;fontSize=11;fontColor=default;labelBackgroundColor=default;startArrow=none;startFill=0;endArrow=none;endFill=0;" edge="1" parent="1" source="20" target="5">
                    <mxGeometry relative="1" as="geometry"/>
                </mxCell>
                <mxCell id="20" value="Status" style="ellipse;whiteSpace=wrap;html=1;" vertex="1" parent="1">
                    <mxGeometry x="150" y="710" width="80" height="50" as="geometry"/>
                </mxCell>
                <mxCell id="38" style="edgeStyle=none;shape=connector;rounded=1;html=1;exitX=0.5;exitY=1;exitDx=0;exitDy=0;entryX=0.25;entryY=0;entryDx=0;entryDy=0;strokeColor=default;align=center;verticalAlign=middle;fontFamily=Helvetica;fontSize=11;fontColor=default;labelBackgroundColor=default;startArrow=none;startFill=0;endArrow=none;endFill=0;" edge="1" parent="1" source="21" target="4">
                    <mxGeometry relative="1" as="geometry"/>
                </mxCell>
                <mxCell id="21" value="ID" style="ellipse;whiteSpace=wrap;html=1;" vertex="1" parent="1">
                    <mxGeometry x="490" y="530" width="80" height="50" as="geometry"/>
                </mxCell>
                <mxCell id="22" value="id_evento" style="ellipse;whiteSpace=wrap;html=1;" vertex="1" parent="1">
                    <mxGeometry x="630" y="530" width="80" height="50" as="geometry"/>
                </mxCell>
                <mxCell id="40" style="edgeStyle=none;shape=connector;rounded=1;html=1;exitX=0;exitY=0.5;exitDx=0;exitDy=0;strokeColor=default;align=center;verticalAlign=middle;fontFamily=Helvetica;fontSize=11;fontColor=default;labelBackgroundColor=default;startArrow=none;startFill=0;endArrow=none;endFill=0;" edge="1" parent="1" source="23" target="4">
                    <mxGeometry relative="1" as="geometry"/>
                </mxCell>
                <mxCell id="23" value="id_participante" style="ellipse;whiteSpace=wrap;html=1;" vertex="1" parent="1">
                    <mxGeometry x="690" y="605" width="80" height="50" as="geometry"/>
                </mxCell>
                <mxCell id="41" style="edgeStyle=none;shape=connector;rounded=1;html=1;exitX=0.5;exitY=0;exitDx=0;exitDy=0;entryX=0.5;entryY=1;entryDx=0;entryDy=0;strokeColor=default;align=center;verticalAlign=middle;fontFamily=Helvetica;fontSize=11;fontColor=default;labelBackgroundColor=default;startArrow=none;startFill=0;endArrow=none;endFill=0;" edge="1" parent="1" source="24" target="4">
                    <mxGeometry relative="1" as="geometry"/>
                </mxCell>
                <mxCell id="24" value="data_inscricao" style="ellipse;whiteSpace=wrap;html=1;" vertex="1" parent="1">
                    <mxGeometry x="550" y="690" width="80" height="50" as="geometry"/>
                </mxCell>
                <mxCell id="37" style="edgeStyle=none;shape=connector;rounded=1;html=1;exitX=1;exitY=0.5;exitDx=0;exitDy=0;entryX=0;entryY=1;entryDx=0;entryDy=0;strokeColor=default;align=center;verticalAlign=middle;fontFamily=Helvetica;fontSize=11;fontColor=default;labelBackgroundColor=default;startArrow=none;startFill=0;endArrow=none;endFill=0;" edge="1" parent="1" source="25" target="4">
                    <mxGeometry relative="1" as="geometry"/>
                </mxCell>
                <mxCell id="25" value="Status" style="ellipse;whiteSpace=wrap;html=1;" vertex="1" parent="1">
                    <mxGeometry x="440" y="655" width="80" height="50" as="geometry"/>
                </mxCell>
                <mxCell id="39" style="edgeStyle=none;shape=connector;rounded=1;html=1;exitX=0.5;exitY=1;exitDx=0;exitDy=0;entryX=0.688;entryY=0.029;entryDx=0;entryDy=0;entryPerimeter=0;strokeColor=default;align=center;verticalAlign=middle;fontFamily=Helvetica;fontSize=11;fontColor=default;labelBackgroundColor=default;startArrow=none;startFill=0;endArrow=none;endFill=0;" edge="1" parent="1" source="22" target="4">
                    <mxGeometry relative="1" as="geometry"/>
                </mxCell>
                <mxCell id="47" value="Possui" style="rhombus;whiteSpace=wrap;html=1;fontFamily=Helvetica;fontSize=11;fontColor=default;labelBackgroundColor=default;" vertex="1" parent="1">
                    <mxGeometry x="560" y="390" width="80" height="80" as="geometry"/>
                </mxCell>
                <mxCell id="52" style="edgeStyle=none;shape=connector;rounded=1;html=1;exitX=0;exitY=0.5;exitDx=0;exitDy=0;entryX=1;entryY=0.5;entryDx=0;entryDy=0;strokeColor=default;align=center;verticalAlign=middle;fontFamily=Helvetica;fontSize=11;fontColor=default;labelBackgroundColor=default;startArrow=none;startFill=0;endArrow=none;endFill=0;" edge="1" parent="1" source="50" target="5">
                    <mxGeometry relative="1" as="geometry"/>
                </mxCell>
                <mxCell id="57" value="1" style="edgeLabel;html=1;align=center;verticalAlign=middle;resizable=0;points=[];fontFamily=Helvetica;fontSize=11;fontColor=default;labelBackgroundColor=default;" vertex="1" connectable="0" parent="52">
                    <mxGeometry x="0.4683" y="1" relative="1" as="geometry">
                        <mxPoint x="1" as="offset"/>
                    </mxGeometry>
                </mxCell>
                <mxCell id="50" value="Possui" style="rhombus;whiteSpace=wrap;html=1;fontFamily=Helvetica;fontSize=11;fontColor=default;labelBackgroundColor=default;" vertex="1" parent="1">
                    <mxGeometry x="310" y="580" width="80" height="80" as="geometry"/>
                </mxCell>
                <mxCell id="53" value="Participa" style="rhombus;whiteSpace=wrap;html=1;fontFamily=Helvetica;fontSize=11;fontColor=default;labelBackgroundColor=default;" vertex="1" parent="1">
                    <mxGeometry x="325" y="170" width="80" height="80" as="geometry"/>
                </mxCell>
            </root>
        </mxGraphModel>
    </diagram>
</mxfile>